# xmcd
#
# Track frame offsets:
#	150
#	14126
#	25616
#	37289
#	53290
#	69842
#	82694
#	96032
#	111810
#	123104
#	134644
#
# Disc length: 2032 seconds
#
# Revision: 1
# Processed by: cddbd v1.5.2PL0 Copyright (c) Steve Scherf et al.
# Submitted via: audiograbber 1.83.01
#
DISCID=8307ee0b
DTITLE=Augie Meyers and the rocka baca's - My Freeholies Ain't Free Anymore
DYEAR=2006
DGENRE=Country
TTITLE0=I Found Love
TTITLE1=My Freeholies Ain't Free Anymore
TTITLE2=Go Down To Mexico
TTITLE3=Heart Of Mine
TTITLE4=Wishing For You
TTITLE5=Hey La Ronda
TTITLE6=Life's To Short
TTITLE7=Get This Pain
TTITLE8=Lupe Hernandez
TTITLE9=Crazy Heart
TTITLE10=Rain
EXTD=
EXTT0=
EXTT1=
EXTT2=
EXTT3=
EXTT4=
EXTT5=
EXTT6=
EXTT7=
EXTT8=
EXTT9=
EXTT10=
PLAYORDER=
